# xmcd
# Track frame offsets:
# 150
# 15436
# 32066
# 46613
# 57106
# 74900
# 90379
# 104490
# 125646
# 140427
#
# Disc length: 1997 seconds
# Revision: 0
# Processed by: cddbd v1.5.2PL0 Copyright (c) Steve Scherf et al.
# Submitted via: VisiTrax 2.11.1.266 - For more info visit www.synapsa.com
#
DISCID=8407cb0a
DTITLE=Joe Galea Band - Hiding Under Cover
DYEAR=2007
DGENRE=Blues
TTITLE0=Walkin Blues
TTITLE1=Do You Have A Garter Belt
TTITLE2=You Left The Water Running
TTITLE3=Big Mamou
TTITLE4=Deadend Road
TTITLE5=Further On Up The Road
TTITLE6=Hiding Under The Cover
TTITLE7=Sick and Tired
TTITLE8=Today I Started Loving You Again
TTITLE9=I Had A Real Good Time
EXTD=
EXTT0=
EXTT1=
EXTT2=
EXTT3=
EXTT4=
EXTT5=
EXTT6=
EXTT7=
EXTT8=
EXTT9=
PLAYORDER=
